{
	"asset": {
		"generator": "Tilt Brush 20.3.584b23854",
		"version": "1.1",
		"copyright": "Unknown."
	},
	"buffers": {
		"sketch": {
			"byteLength": 5650780,
			"type": "arraybuffer",
			"uri": "sketch.bin"
		}
	},
	"accessors": {
		"accessor_position_CoarseBristles_1161af82-50cf-47db-9706-0c3576d43c43_0_0": {
			"bufferView": "vec3BufferView",
			"byteOffset": 0,
			"byteStride": 12,
			"componentType": 5126,
			"count": 65524,
			"max": [ 0.9323227, 1.530652, 1.102192 ],
			"min": [ -1.455631, -0.1096106, -0.9344394 ],
			"type": "VEC3"
		 },
		"accessor_normal_CoarseBristles_1161af82-50cf-47db-9706-0c3576d43c43_0_0": {
			"bufferView": "vec3BufferView",
			"byteOffset": 786288,
			"byteStride": 12,
			"componentType": 5126,
			"count": 65524,
			"max": [ 0.9999253, 0.9998428, 0.9995735 ],
			"min": [ -0.9999952, -0.9999251, -0.9997965 ],
			"type": "VEC3"
		 },
		"accessor_color_CoarseBristles_1161af82-50cf-47db-9706-0c3576d43c43_0_0": {
			"bufferView": "vec4BufferView",
			"byteOffset": 0,
			"byteStride": 16,
			"componentType": 5126,
			"count": 65524,
			"max": [ 0.5176471, 0.3411765, 0.2117647, 1 ],
			"min": [ 0.1607843, 0.07450981, 0.01176471, 1 ],
			"type": "VEC4"
		 },
		"accessor_tangent_CoarseBristles_1161af82-50cf-47db-9706-0c3576d43c43_0_0": {
			"bufferView": "vec4BufferView",
			"byteOffset": 1048384,
			"byteStride": 16,
			"componentType": 5126,
			"count": 65524,
			"max": [ 0.9999974, 0.9999273, 0.9997672, 1 ],
			"min": [ -0.9999217, -0.9999342, -0.9999346, 1 ],
			"type": "VEC4"
		 },
		"accessor_uv0_CoarseBristles_1161af82-50cf-47db-9706-0c3576d43c43_0_0": {
			"bufferView": "vec2BufferView",
			"byteOffset": 0,
			"byteStride": 8,
			"componentType": 5126,
			"count": 65524,
			"max": [ 1, 1 ],
			"min": [ 0, 0 ],
			"type": "VEC2"
		 },
		"accessor_indices_0_CoarseBristles_1161af82-50cf-47db-9706-0c3576d43c43_0_0": {
			"bufferView": "ushortBufferView",
			"byteOffset": 0,
			"byteStride": 0,
			"componentType": 5123,
			"count": 98286,
			"max": [ 65523 ],
			"min": [ 0 ],
			"type": "SCALAR"
		 },
		"accessor_position_CoarseBristles_1161af82-50cf-47db-9706-0c3576d43c43_0_1": {
			"bufferView": "vec3BufferView",
			"byteOffset": 1572576,
			"byteStride": 12,
			"componentType": 5126,
			"count": 18816,
			"max": [ 1.077925, 2.393738, 1.75959 ],
			"min": [ -1.879766, -0.07535739, -1.486093 ],
			"type": "VEC3"
		 },
		"accessor_normal_CoarseBristles_1161af82-50cf-47db-9706-0c3576d43c43_0_1": {
			"bufferView": "vec3BufferView",
			"byteOffset": 1798368,
			"byteStride": 12,
			"componentType": 5126,
			"count": 18816,
			"max": [ 0.9996067, 0.9852196, 0.999428 ],
			"min": [ -0.9986526, -0.9995657, -0.9998444 ],
			"type": "VEC3"
		 },
		"accessor_color_CoarseBristles_1161af82-50cf-47db-9706-0c3576d43c43_0_1": {
			"bufferView": "vec4BufferView",
			"byteOffset": 2096768,
			"byteStride": 16,
			"componentType": 5126,
			"count": 18816,
			"max": [ 0.9960784, 0.7176471, 0.9490196, 1 ],
			"min": [ 0.1607843, 0.07450981, 0.01176471, 1 ],
			"type": "VEC4"
		 },
		"accessor_tangent_CoarseBristles_1161af82-50cf-47db-9706-0c3576d43c43_0_1": {
			"bufferView": "vec4BufferView",
			"byteOffset": 2397824,
			"byteStride": 16,
			"componentType": 5126,
			"count": 18816,
			"max": [ 0.9999164, 0.9996116, 0.9998955, 1 ],
			"min": [ -0.9998623, -0.9980068, -0.9994404, 1 ],
			"type": "VEC4"
		 },
		"accessor_uv0_CoarseBristles_1161af82-50cf-47db-9706-0c3576d43c43_0_1": {
			"bufferView": "vec2BufferView",
			"byteOffset": 524192,
			"byteStride": 8,
			"componentType": 5126,
			"count": 18816,
			"max": [ 1, 1 ],
			"min": [ 0, 0 ],
			"type": "VEC2"
		 },
		"accessor_indices_0_CoarseBristles_1161af82-50cf-47db-9706-0c3576d43c43_0_1": {
			"bufferView": "ushortBufferView",
			"byteOffset": 196572,
			"byteStride": 0,
			"componentType": 5123,
			"count": 28224,
			"max": [ 18815 ],
			"min": [ 0 ],
			"type": "SCALAR"
		 }
	},
	"bufferViews": {
		"ushortBufferView": {
			"buffer": "sketch",
			"byteLength": 253020,
			"byteOffset": 0,
			"target": 34963
		},
		"vec2BufferView": {
			"buffer": "sketch",
			"byteLength": 674720,
			"byteOffset": 253020,
			"target": 34962
		},
		"vec3BufferView": {
			"buffer": "sketch",
			"byteLength": 2024160,
			"byteOffset": 927740,
			"target": 34962
		},
		"vec4BufferView": {
			"buffer": "sketch",
			"byteLength": 2698880,
			"byteOffset": 2951900,
			"target": 34962
		}
	},
	"meshes": {
		"mesh_CoarseBristles_1161af82-50cf-47db-9706-0c3576d43c43_0_0": {
			"name": "mesh_CoarseBristles_1161af82-50cf-47db-9706-0c3576d43c43_0_0",
			"primitives": [
				{
					"attributes": {
						"POSITION": "accessor_position_CoarseBristles_1161af82-50cf-47db-9706-0c3576d43c43_0_0",
						"NORMAL": "accessor_normal_CoarseBristles_1161af82-50cf-47db-9706-0c3576d43c43_0_0",
						"COLOR": "accessor_color_CoarseBristles_1161af82-50cf-47db-9706-0c3576d43c43_0_0",
						"TANGENT": "accessor_tangent_CoarseBristles_1161af82-50cf-47db-9706-0c3576d43c43_0_0",
						"TEXCOORD_0": "accessor_uv0_CoarseBristles_1161af82-50cf-47db-9706-0c3576d43c43_0_0"
					},
					"indices": "accessor_indices_0_CoarseBristles_1161af82-50cf-47db-9706-0c3576d43c43_0_0",
					"material": "material_1161af82-50cf-47db-9706-0c3576d43c43",
					"mode": 4
				}
			]
		},
		"mesh_CoarseBristles_1161af82-50cf-47db-9706-0c3576d43c43_0_1": {
			"name": "mesh_CoarseBristles_1161af82-50cf-47db-9706-0c3576d43c43_0_1",
			"primitives": [
				{
					"attributes": {
						"POSITION": "accessor_position_CoarseBristles_1161af82-50cf-47db-9706-0c3576d43c43_0_1",
						"NORMAL": "accessor_normal_CoarseBristles_1161af82-50cf-47db-9706-0c3576d43c43_0_1",
						"COLOR": "accessor_color_CoarseBristles_1161af82-50cf-47db-9706-0c3576d43c43_0_1",
						"TANGENT": "accessor_tangent_CoarseBristles_1161af82-50cf-47db-9706-0c3576d43c43_0_1",
						"TEXCOORD_0": "accessor_uv0_CoarseBristles_1161af82-50cf-47db-9706-0c3576d43c43_0_1"
					},
					"indices": "accessor_indices_0_CoarseBristles_1161af82-50cf-47db-9706-0c3576d43c43_0_1",
					"material": "material_1161af82-50cf-47db-9706-0c3576d43c43",
					"mode": 4
				}
			]
		}
	},
	"shaders": {
		"vertex_1161af82-50cf-47db-9706-0c3576d43c43": {
			"type": 35633,
			"uri": "https://www.tiltbrush.com/shaders/brushes/CoarseBristles-1161af82-50cf-47db-9706-0c3576d43c43/CoarseBristles-1161af82-50cf-47db-9706-0c3576d43c43-v10.0-vertex.glsl"
		},
		"fragment_1161af82-50cf-47db-9706-0c3576d43c43": {
			"type": 35632,
			"uri": "https://www.tiltbrush.com/shaders/brushes/CoarseBristles-1161af82-50cf-47db-9706-0c3576d43c43/CoarseBristles-1161af82-50cf-47db-9706-0c3576d43c43-v10.0-fragment.glsl"
		}
	},
	"programs": {
		"program_1161af82-50cf-47db-9706-0c3576d43c43": {
			"attributes": [
				"a_position",
				"a_normal",
				"a_color",
				"a_tangent",
				"a_texcoord0"				
			],
			"vertexShader": "vertex_1161af82-50cf-47db-9706-0c3576d43c43",
			"fragmentShader": "fragment_1161af82-50cf-47db-9706-0c3576d43c43"
		}
	},
	"techniques": {
		"technique_1161af82-50cf-47db-9706-0c3576d43c43": {
			"program": "program_1161af82-50cf-47db-9706-0c3576d43c43",
			"parameters": {
				"position": {
					"type": 35665,
					"semantic": "POSITION"
				},
				"normal": {
					"type": 35665,
					"semantic": "NORMAL"
				},
				"color": {
					"type": 35666,
					"semantic": "COLOR"
				},
				"tangent": {
					"type": 35666,
					"semantic": "TANGENT"
				},
				"texcoord0": {
					"type": 35664,
					"semantic": "TEXCOORD_0"
				},
				"modelViewMatrix": {
					"type": 35676,
					"semantic": "MODELVIEW"
				},
				"projectionMatrix": {
					"type": 35676,
					"semantic": "PROJECTION"
				},
				"normalMatrix": {
					"type": 35675,
					"semantic": "MODELVIEWINVERSETRANSPOSE"
				},
				"SceneLight_0_matrix": {
					"type": 35676,
					"semantic": "MODELVIEW",
					"node": "node_SceneLight_0_-3068"
				},
				"SceneLight_0_color": {
					"type": 35666,
					"node": "node_SceneLight_0_-3068"
				},
				"SceneLight_1_matrix": {
					"type": 35676,
					"semantic": "MODELVIEW",
					"node": "node_SceneLight_1_-3074"
				},
				"SceneLight_1_color": {
					"type": 35666,
					"node": "node_SceneLight_1_-3074"
				},
				"ambient_light_color": {
					"type": 35666
				},
				"Cutoff": {
					"type": 5126
				},
				"Color": {
					"type": 35666
				},
				"MainTex_TexelSize": {
					"type": 35666
				},
				"MainTex": {
					"type": 35678
				}				
			},
			"attributes": {
				"a_position": "position",
				"a_normal": "normal",
				"a_color": "color",
				"a_tangent": "tangent",
				"a_texcoord0": "texcoord0"				
			},
			"uniforms": {
				"u_modelViewMatrix": "modelViewMatrix",
				"u_projectionMatrix": "projectionMatrix",
				"u_normalMatrix": "normalMatrix",
				"u_SceneLight_0_matrix": "SceneLight_0_matrix",
				"u_SceneLight_0_color": "SceneLight_0_color",
				"u_SceneLight_1_matrix": "SceneLight_1_matrix",
				"u_SceneLight_1_color": "SceneLight_1_color",
				"u_ambient_light_color": "ambient_light_color",
				"u_Cutoff": "Cutoff",
				"u_Color": "Color",
				"u_MainTex_TexelSize": "MainTex_TexelSize",
				"u_MainTex": "MainTex"				
			},
			"states": {
				"enable": [
					2929
				],
				"functions": {
					"depthMask": [true]
				}
			}
		}
	},
	"samplers": {
		"sampler_LINEAR_LINEAR_REPEAT": {
			"magFilter": 9729,
			"minFilter": 9987,
			"wrapS": 10497,
			"wrapT": 10497
		}
	},
	"textures": {
		"texture_1161af82-50cf-47db-9706-0c3576d43c43_MainTex": {
			"format": 6408,
			"internalFormat": 6408,
			"sampler": "sampler_LINEAR_LINEAR_REPEAT",
			"source": "image_1161af82-50cf-47db-9706-0c3576d43c43_MainTex",
			"target": 3553,
			"type": 5121
		}
	},
	"images": {
		"image_1161af82-50cf-47db-9706-0c3576d43c43_MainTex": {
			"uri": "https://www.tiltbrush.com/shaders/brushes/CoarseBristles-1161af82-50cf-47db-9706-0c3576d43c43/CoarseBristles-1161af82-50cf-47db-9706-0c3576d43c43-v10.0-MainTex.png"
		}
	},
	"materials": {
		"material_1161af82-50cf-47db-9706-0c3576d43c43": {
			"technique": "technique_1161af82-50cf-47db-9706-0c3576d43c43",
			"values": {
				"SceneLight_0_color": [0.7780392, 0.8156863, 0.9913726, 1],
				"SceneLight_1_color": [0.4282353, 0.4211765, 0.3458824, 1],
				"ambient_light_color": [0.3921569, 0.3921569, 0.3921569, 1],
				"Cutoff": 0.25,
				"Color": [1, 1, 1, 1],
				"MainTex_TexelSize": [0.001953125, 0.001953125, 512, 512],
				"MainTex": "texture_1161af82-50cf-47db-9706-0c3576d43c43_MainTex"				
			},
			"name": "material_1161af82-50cf-47db-9706-0c3576d43c43"
		}
	},
	"nodes": {
		"node_CoarseBristles_1161af82-50cf-47db-9706-0c3576d43c43_0_0": {
			"name": "node_CoarseBristles_1161af82-50cf-47db-9706-0c3576d43c43_0_0",
			"meshes": [
				"mesh_CoarseBristles_1161af82-50cf-47db-9706-0c3576d43c43_0_0"
			],
			"matrix": [1, 0, 0, 0, 0, 1, 0, 0, 0, 0, 1, 0, 0, 0, 0, 1]
		},
		"node_SceneLight_0_-3068": {
			"name": "node_SceneLight_0_-3068",
			"light": "SceneLight_0",
			"matrix": [0.898794, 0.2191856, -0.3796406, 0, -0.4383712, 0.449397, -0.7783785, 0, -1.490116E-08, 0.8660254, 0.4999999, 0, 0, 0.021875, 0.05458749, 1]
		},
		"node_SceneLight_1_-3074": {
			"name": "node_SceneLight_1_-3074",
			"light": "SceneLight_1",
			"matrix": [0.7660444, -0.4924039, -0.4131759, 0, -0.6427876, -0.5868242, -0.4924039, 0, 8.940697E-08, 0.6427876, -0.7660446, 0, 0, 0.021875, 0.05458749, 1]
		},
		"node_CoarseBristles_1161af82-50cf-47db-9706-0c3576d43c43_0_1": {
			"name": "node_CoarseBristles_1161af82-50cf-47db-9706-0c3576d43c43_0_1",
			"meshes": [
				"mesh_CoarseBristles_1161af82-50cf-47db-9706-0c3576d43c43_0_1"
			],
			"matrix": [1, 0, 0, 0, 0, 1, 0, 0, 0, 0, 1, 0, 0, 0, 0, 1]
		}
	},
	"scene": "defaultScene",
	"scenes": {
		"defaultScene": {
			"nodes": [
				"node_CoarseBristles_1161af82-50cf-47db-9706-0c3576d43c43_0_0",
				"node_SceneLight_0_-3068",
				"node_SceneLight_1_-3074",
				"node_CoarseBristles_1161af82-50cf-47db-9706-0c3576d43c43_0_1"
			],
			"extras": {
				"TB_EnvironmentGuid": "ab080599-e465-4a6d-8587-43bf495af68b",
				"TB_Environment": "Standard",
				"TB_UseGradient": "true",
				"TB_SkyColorA": "0.2745098, 0.2745098, 0.3176471",
				"TB_SkyColorB": "0.03529412, 0.03529412, 0.08627451",
				"TB_SkyGradientDirection": "0, 1, 0",
				"TB_FogColor": "0.1647059, 0.1647059, 0.2078431",
				"TB_FogDensity": "0.0025",
				"TB_SkyColorHorizon": "0.2745098, 0.2745098, 0.3176471",
				"TB_SkyColorZenith": "0.03529412, 0.03529412, 0.08627451"
			}
		}
	}
}